<svg width="121" height="62" viewBox="0 0 121 62" fill="none" xmlns="http://www.w3.org/2000/svg">
<path d="M31.1153 16.7227C30.5891 17.1446 30.0519 17.5752 29.4699 17.9111C28.6671 17.1766 26.2122 15.8007 25.6815 17.6611C25.5424 18.1487 25.9745 18.5227 26.3487 18.7419C26.8653 19.0447 27.4619 19.1669 28.0538 19.2881C28.3647 19.3518 28.6743 19.4152 28.9704 19.5044C31.4691 20.2572 33.0045 22.7221 31.976 25.301C30.9262 27.9333 27.4634 28.7241 24.9745 28.0367C24.0412 27.779 23.1634 27.2321 22.4795 26.5485C22.4685 26.5375 22.4574 26.5265 22.4461 26.5153C22.1915 26.2617 21.8667 25.9384 21.9996 25.5515C22.1979 24.9741 23.5562 23.5422 24.2253 23.706C24.5573 23.7873 24.8543 23.9865 25.1553 24.1883C25.4531 24.3881 25.7549 24.5905 26.0984 24.6838C26.8372 24.8845 28.297 24.9442 28.4919 23.9232C28.5828 23.4471 28.0814 23.1186 27.7212 22.9385C27.1912 22.6735 26.6121 22.5524 26.0312 22.431C25.5021 22.3204 24.9715 22.2095 24.475 21.9893C22.2176 20.988 21.1233 17.9446 22.4937 15.7818C23.1666 14.7199 24.3907 14.0683 25.5989 13.8355C27.299 13.5077 29.1226 13.6852 30.5937 14.6677C30.9767 14.9234 31.7964 15.4778 31.7274 16.021C31.6963 16.2658 31.4712 16.442 31.2831 16.5891C31.2599 16.6072 31.2373 16.6249 31.2157 16.6423C31.1823 16.669 31.1488 16.6959 31.1153 16.7227Z" fill="black"/>
<path fill-rule="evenodd" clip-rule="evenodd" d="M49.9034 15.907C50.9523 14.4377 52.6227 13.9374 54.3192 13.7057C56.6434 13.3883 59.6584 14.4602 60.5541 16.7838C61.0038 17.9501 60.976 19.2807 60.9496 20.5481C60.9434 20.8425 60.9374 21.1335 60.9374 21.4181C60.9374 21.5565 60.9382 21.6964 60.939 21.8372C60.9474 23.2848 60.9564 24.8383 60.0896 26.0525C59.0529 27.5048 57.3884 28.0678 55.6928 28.2713C53.2851 28.56 50.2585 27.51 49.3928 25.0505C48.9983 23.9298 49.0293 22.6776 49.0591 21.4732C49.0669 21.1582 49.0746 20.8466 49.0746 20.5414C49.0746 20.3788 49.0732 20.2144 49.0718 20.0486C49.0599 18.6244 49.0471 17.1065 49.9034 15.907ZM52.8132 20.1372C52.784 18.7752 52.7548 17.4104 54.4441 17.0929C54.777 17.0303 55.11 17.0328 55.4431 17.0925C57.3444 17.4333 57.2783 19.0385 57.2142 20.5938C57.2027 20.8727 57.1913 21.15 57.1913 21.4181C57.1913 21.5864 57.1954 21.758 57.1995 21.9303C57.2296 23.1899 57.2605 24.4824 55.6928 24.7587C55.3686 24.816 55.0217 24.811 54.6938 24.7949C52.6814 24.6968 52.7448 22.9711 52.8022 21.4099C52.8116 21.1551 52.8208 20.9048 52.8208 20.6666C52.8208 20.4917 52.817 20.3145 52.8132 20.1372Z" fill="black"/>
<path fill-rule="evenodd" clip-rule="evenodd" d="M35.4637 28.0565V13.903H39.9879C41.6427 13.9029 43.2073 13.9029 44.5774 14.9903C47.1871 17.0611 46.7593 21.6232 43.9549 23.2852C42.7432 24.0033 41.3118 23.9694 39.9319 23.9367C39.6466 23.9299 39.3635 23.9232 39.0849 23.9232V28.0565H35.4637ZM39.085 20.6666V17.2848C39.2739 17.2848 39.4763 17.2754 39.6853 17.2657C40.4195 17.2315 41.2347 17.1936 41.8297 17.5464C42.8217 18.1347 42.8867 19.92 41.8267 20.4841C41.2668 20.7822 40.4624 20.7352 39.7491 20.6935C39.5138 20.6798 39.2884 20.6666 39.085 20.6666Z" fill="black"/>
<path fill-rule="evenodd" clip-rule="evenodd" d="M64.8084 28.0565V13.903H69.5535C71.1768 13.903 72.8262 13.9035 74.1718 14.9713C76.5879 16.8886 76.2276 22.2513 73.0499 23.1717C73.4969 23.7766 73.99 24.3641 74.4848 24.9536C75.3214 25.9504 76.1631 26.9531 76.796 28.0565H73.5493C73.4601 28.0565 73.3659 28.0601 73.2691 28.0638C72.8624 28.0794 72.4099 28.0967 72.0915 27.8557C71.4492 27.3696 70.9186 26.5342 70.4246 25.7566C70.2077 25.4151 69.9978 25.0847 69.7887 24.8C69.7467 24.7427 69.706 24.6861 69.6661 24.6305C69.3313 24.1641 69.0477 23.7692 68.4296 23.6727V28.0565H64.8084ZM68.4296 20.4161V17.2848C68.6222 17.2848 68.8297 17.2756 69.0447 17.266C69.8599 17.2298 70.7842 17.1887 71.421 17.6265C72.3603 18.2721 72.2215 19.8098 71.1749 20.2623C70.5846 20.5175 69.8165 20.4774 69.1135 20.4406C68.8749 20.4282 68.6438 20.4161 68.4296 20.4161Z" fill="black"/>
<path d="M78.4193 17.4101V13.903H89.6577V17.4101H85.9116V28.0565H82.1654V17.4101H78.4193Z" fill="black"/>
<path fill-rule="evenodd" clip-rule="evenodd" d="M49.9224 35.9474C50.9447 34.5108 52.6562 33.9732 54.3192 33.7461C56.5961 33.4352 59.6172 34.4212 60.551 36.6989C61.0299 37.867 60.9922 39.1966 60.9561 40.4731C60.9467 40.8065 60.9374 41.1362 60.9374 41.4585C60.9374 41.6525 60.9398 41.8482 60.9422 42.0449C60.9593 43.448 60.977 44.8997 60.1328 46.091C59.0939 47.5572 57.3949 48.1074 55.6928 48.3116C53.3285 48.5953 50.2529 47.514 49.4194 45.0908C49.067 44.0665 49.1184 42.8558 49.1669 41.7116C49.1834 41.3241 49.1995 40.9442 49.1995 40.5817C49.1995 40.3272 49.1932 40.0682 49.1869 39.8071C49.1546 38.4679 49.121 37.0737 49.9224 35.9474ZM52.5665 40.3611C52.5454 38.9046 52.5246 37.47 54.3192 37.1333C54.652 37.0708 54.9853 37.0728 55.3182 37.133C57.2206 37.4763 57.1517 39.1939 57.0885 40.7717C57.0773 41.0495 57.0664 41.323 57.0664 41.5838C57.0664 41.6976 57.0677 41.8134 57.069 41.9301C57.0829 43.1711 57.0981 44.5243 55.5679 44.7992C55.2502 44.8562 54.9137 44.8475 54.5915 44.8391L54.569 44.8385C52.4921 44.7849 52.5296 42.9973 52.5629 41.408C52.567 41.2119 52.571 41.0188 52.571 40.8323C52.571 40.6759 52.5687 40.5183 52.5665 40.3611Z" fill="black"/>
<path fill-rule="evenodd" clip-rule="evenodd" d="M35.4637 48.0969V33.9434H39.9879C41.6428 33.9433 43.2073 33.9433 44.5774 35.0307C47.1871 37.1016 46.7593 41.6636 43.9549 43.3255C42.7432 44.0437 41.3118 44.0097 39.9319 43.977C39.6466 43.9703 39.3635 43.9636 39.0849 43.9636V48.0969H35.4637ZM39.085 40.7071V37.3252C39.2738 37.3252 39.4763 37.3158 39.6852 37.3061C40.4194 37.272 41.2347 37.2341 41.8297 37.587C42.8218 38.1752 42.8866 39.9604 41.8267 40.5246C41.2668 40.8226 40.4623 40.7756 39.7491 40.734C39.5138 40.7202 39.2884 40.7071 39.085 40.7071Z" fill="black"/>
<path d="M64.8084 48.0969V33.9434H68.4296V48.0969H64.8084Z" fill="black"/>
<path d="M72.925 48.0969V33.9434H75.2975C75.3616 33.9434 75.4293 33.9411 75.4991 33.9387C75.7912 33.9287 76.1179 33.9176 76.3553 34.0721C76.8192 34.374 77.1728 35.1643 77.4579 35.8015C77.5448 35.9956 77.6253 36.1756 77.7007 36.3232C78.6025 38.0903 79.5446 39.8696 80.5421 41.5838V33.9434H84.1634V48.0969H81.7908C81.7014 48.0969 81.6038 48.102 81.5023 48.1073C81.1917 48.1234 80.8455 48.1414 80.5908 48.0214C80.1292 47.8036 79.7846 47.0099 79.5233 46.408C79.4508 46.2409 79.3847 46.0887 79.3243 45.9676C79.1337 45.5855 78.9447 45.2019 78.7556 44.8181C78.0517 43.3888 77.3458 41.9558 76.5462 40.5817V48.0969H72.925Z" fill="black"/>
<path d="M87.2852 37.4504V33.9434H98.5235V37.4504H94.7774V48.0969H91.0313V37.4504H87.2852Z" fill="black"/>
<path d="M0 0V41.9596H25.0991V37.9515H4.12074V4.00808H42.581V0H0Z" fill="#DB2138"/>
<path d="M95.9009 20.0404V24.0485H117.004V57.9919H78.419V62H121V20.0404H95.9009Z" fill="#DB2138"/>
</svg>
